<svg xmlns="http://www.w3.org/2000/svg" viewBox="0 0 760 240" role="img" aria-label="CD-ROM data path">
  <defs>
    <marker id="arr" markerWidth="9" markerHeight="9" refX="7" refY="3" orient="auto">
      <path d="M0,0 L7,3 L0,6 Z" fill="#475569"/>
    </marker>
  </defs>
  <rect x="0.5" y="0.5" width="759" height="239" rx="8" fill="#fcfcfe" stroke="#d0d7de"/>
  <text x="380" y="30" text-anchor="middle" font-size="15" fill="#0f172a" font-family="Segoe UI, system-ui, sans-serif" font-weight="700">CD-ROM data path</text>

  <rect x="30"  y="56" width="150" height="50" rx="6" fill="#dcfce7" stroke="#334155" stroke-width="1.5"/>
  <text x="105" y="86" text-anchor="middle" font-size="14" fill="#0f172a" font-family="Segoe UI, system-ui, sans-serif" font-weight="600">CD mechanism</text>

  <rect x="230" y="56" width="120" height="50" rx="6" fill="#dcfce7" stroke="#334155" stroke-width="1.5"/>
  <text x="290" y="80" text-anchor="middle" font-size="14" fill="#0f172a" font-family="Segoe UI, system-ui, sans-serif" font-weight="700">Butch</text>
  <text x="290" y="97" text-anchor="middle" font-size="11" fill="#475569" font-family="Segoe UI, system-ui, sans-serif">CD interface chip</text>

  <rect x="400" y="56" width="150" height="50" rx="6" fill="#ffedd5" stroke="#334155" stroke-width="1.5"/>
  <text x="475" y="80" text-anchor="middle" font-size="14" fill="#0f172a" font-family="Segoe UI, system-ui, sans-serif" font-weight="700">Jerry I²S</text>
  <text x="475" y="97" text-anchor="middle" font-size="11" fill="#475569" font-family="Segoe UI, system-ui, sans-serif">serial interrupt</text>

  <rect x="600" y="56" width="130" height="50" rx="6" fill="#f1f5f9" stroke="#334155" stroke-width="1.5"/>
  <text x="665" y="86" text-anchor="middle" font-size="14" fill="#0f172a" font-family="Segoe UI, system-ui, sans-serif">interrupt</text>

  <line x1="180" y1="81" x2="228" y2="81" stroke="#475569" stroke-width="1.6" marker-end="url(#arr)"/>
  <line x1="350" y1="81" x2="398" y2="81" stroke="#475569" stroke-width="1.6" marker-end="url(#arr)"/>
  <line x1="550" y1="81" x2="598" y2="81" stroke="#475569" stroke-width="1.6" marker-end="url(#arr)"/>

  <line x1="665" y1="106" x2="665" y2="138" stroke="#475569" stroke-width="1.6"/>
  <line x1="665" y1="138" x2="430" y2="138" stroke="#475569" stroke-width="1.6"/>
  <line x1="430" y1="138" x2="430" y2="150" stroke="#475569" stroke-width="1.6" marker-end="url(#arr)"/>

  <rect x="250" y="152" width="360" height="46" rx="6" fill="#ede9fe" stroke="#334155" stroke-width="1.5"/>
  <text x="430" y="180" text-anchor="middle" font-size="14" fill="#0f172a" font-family="Segoe UI, system-ui, sans-serif" font-weight="600">GPU or DSP handler  (CD_init / custom)</text>

  <line x1="250" y1="175" x2="200" y2="175" stroke="#475569" stroke-width="1.6"/>
  <line x1="200" y1="175" x2="200" y2="198" stroke="#475569" stroke-width="1.6" marker-end="url(#arr)"/>
  <text x="200" y="225" text-anchor="middle" font-size="13" fill="#475569" font-family="Segoe UI, system-ui, sans-serif">writes data to your DRAM buffer</text>
</svg>
