<svg xmlns="http://www.w3.org/2000/svg" viewBox="0 0 592 112" role="img" aria-label="GPU / DSP instruction encoding (16-bit)">
  <rect x="0.5" y="0.5" width="591" height="111" rx="8" fill="#fcfcfe" stroke="#d0d7de"/>
  <text x="296.0" y="28" text-anchor="middle" font-size="15" fill="#0f172a" font-family="Segoe UI, system-ui, sans-serif" font-weight="700">GPU / DSP instruction encoding (16-bit)</text>
  <text x="24" y="50" text-anchor="start" font-size="11" fill="#475569" font-family="Segoe UI, system-ui, sans-serif" font-weight="normal">bit 15</text>
  <text x="568" y="50" text-anchor="end" font-size="11" fill="#475569" font-family="Segoe UI, system-ui, sans-serif" font-weight="normal">bit 0</text>
  <rect x="24" y="58" width="204" height="34" rx="0" fill="#c7d2fe" stroke="#334155" stroke-width="1.5"/>
  <text x="126.0" y="80" text-anchor="middle" font-size="14" fill="#0f172a" font-family="Consolas, ui-monospace, monospace" font-weight="700">opcode</text>
  <text x="126.0" y="108" text-anchor="middle" font-size="11" fill="#475569" font-family="Segoe UI, system-ui, sans-serif" font-weight="normal">6 bits</text>
  <line x1="58" y1="58" x2="58" y2="92" stroke="#94a3b8" stroke-width="0.5"/>
  <line x1="92" y1="58" x2="92" y2="92" stroke="#94a3b8" stroke-width="0.5"/>
  <line x1="126" y1="58" x2="126" y2="92" stroke="#94a3b8" stroke-width="0.5"/>
  <line x1="160" y1="58" x2="160" y2="92" stroke="#94a3b8" stroke-width="0.5"/>
  <line x1="194" y1="58" x2="194" y2="92" stroke="#94a3b8" stroke-width="0.5"/>
  <rect x="228" y="58" width="170" height="34" rx="0" fill="#dbeafe" stroke="#334155" stroke-width="1.5"/>
  <text x="313.0" y="80" text-anchor="middle" font-size="14" fill="#0f172a" font-family="Consolas, ui-monospace, monospace" font-weight="700">reg1·src</text>
  <text x="313.0" y="108" text-anchor="middle" font-size="11" fill="#475569" font-family="Segoe UI, system-ui, sans-serif" font-weight="normal">5 bits</text>
  <line x1="262" y1="58" x2="262" y2="92" stroke="#94a3b8" stroke-width="0.5"/>
  <line x1="296" y1="58" x2="296" y2="92" stroke="#94a3b8" stroke-width="0.5"/>
  <line x1="330" y1="58" x2="330" y2="92" stroke="#94a3b8" stroke-width="0.5"/>
  <line x1="364" y1="58" x2="364" y2="92" stroke="#94a3b8" stroke-width="0.5"/>
  <rect x="398" y="58" width="170" height="34" rx="0" fill="#dcfce7" stroke="#334155" stroke-width="1.5"/>
  <text x="483.0" y="80" text-anchor="middle" font-size="14" fill="#0f172a" font-family="Consolas, ui-monospace, monospace" font-weight="700">reg2·dst</text>
  <text x="483.0" y="108" text-anchor="middle" font-size="11" fill="#475569" font-family="Segoe UI, system-ui, sans-serif" font-weight="normal">5 bits</text>
  <line x1="432" y1="58" x2="432" y2="92" stroke="#94a3b8" stroke-width="0.5"/>
  <line x1="466" y1="58" x2="466" y2="92" stroke="#94a3b8" stroke-width="0.5"/>
  <line x1="500" y1="58" x2="500" y2="92" stroke="#94a3b8" stroke-width="0.5"/>
  <line x1="534" y1="58" x2="534" y2="92" stroke="#94a3b8" stroke-width="0.5"/>
</svg>
