<svg xmlns="http://www.w3.org/2000/svg" viewBox="0 0 528 112" role="img" aria-label="RGB16 pixel  ·  5:5:6">
  <rect x="0.5" y="0.5" width="527" height="111" rx="8" fill="#fcfcfe" stroke="#d0d7de"/>
  <text x="264.0" y="28" text-anchor="middle" font-size="15" fill="#0f172a" font-family="Segoe UI, system-ui, sans-serif" font-weight="700">RGB16 pixel  ·  5:5:6</text>
  <text x="24" y="50" text-anchor="start" font-size="11" fill="#475569" font-family="Segoe UI, system-ui, sans-serif" font-weight="normal">bit 15</text>
  <text x="504" y="50" text-anchor="end" font-size="11" fill="#475569" font-family="Segoe UI, system-ui, sans-serif" font-weight="normal">bit 0</text>
  <rect x="24" y="58" width="150" height="34" rx="0" fill="#dbeafe" stroke="#334155" stroke-width="1.5"/>
  <text x="99.0" y="80" text-anchor="middle" font-size="14" fill="#0f172a" font-family="Consolas, ui-monospace, monospace" font-weight="700">R</text>
  <text x="99.0" y="108" text-anchor="middle" font-size="11" fill="#475569" font-family="Segoe UI, system-ui, sans-serif" font-weight="normal">5 bits</text>
  <line x1="54" y1="58" x2="54" y2="92" stroke="#94a3b8" stroke-width="0.5"/>
  <line x1="84" y1="58" x2="84" y2="92" stroke="#94a3b8" stroke-width="0.5"/>
  <line x1="114" y1="58" x2="114" y2="92" stroke="#94a3b8" stroke-width="0.5"/>
  <line x1="144" y1="58" x2="144" y2="92" stroke="#94a3b8" stroke-width="0.5"/>
  <rect x="174" y="58" width="150" height="34" rx="0" fill="#bfdbfe" stroke="#334155" stroke-width="1.5"/>
  <text x="249.0" y="80" text-anchor="middle" font-size="14" fill="#0f172a" font-family="Consolas, ui-monospace, monospace" font-weight="700">B</text>
  <text x="249.0" y="108" text-anchor="middle" font-size="11" fill="#475569" font-family="Segoe UI, system-ui, sans-serif" font-weight="normal">5 bits</text>
  <line x1="204" y1="58" x2="204" y2="92" stroke="#94a3b8" stroke-width="0.5"/>
  <line x1="234" y1="58" x2="234" y2="92" stroke="#94a3b8" stroke-width="0.5"/>
  <line x1="264" y1="58" x2="264" y2="92" stroke="#94a3b8" stroke-width="0.5"/>
  <line x1="294" y1="58" x2="294" y2="92" stroke="#94a3b8" stroke-width="0.5"/>
  <rect x="324" y="58" width="180" height="34" rx="0" fill="#dcfce7" stroke="#334155" stroke-width="1.5"/>
  <text x="414.0" y="80" text-anchor="middle" font-size="14" fill="#0f172a" font-family="Consolas, ui-monospace, monospace" font-weight="700">G</text>
  <text x="414.0" y="108" text-anchor="middle" font-size="11" fill="#475569" font-family="Segoe UI, system-ui, sans-serif" font-weight="normal">6 bits</text>
  <line x1="354" y1="58" x2="354" y2="92" stroke="#94a3b8" stroke-width="0.5"/>
  <line x1="384" y1="58" x2="384" y2="92" stroke="#94a3b8" stroke-width="0.5"/>
  <line x1="414" y1="58" x2="414" y2="92" stroke="#94a3b8" stroke-width="0.5"/>
  <line x1="444" y1="58" x2="444" y2="92" stroke="#94a3b8" stroke-width="0.5"/>
  <line x1="474" y1="58" x2="474" y2="92" stroke="#94a3b8" stroke-width="0.5"/>
</svg>
